<svg width="73" height="90" viewBox="0 0 73 90" fill="none" xmlns="http://www.w3.org/2000/svg">
<g clip-path="url(#clip0_1453_44470)">
<path d="M36.4972 0C22.9606 10.9926 8.02415 10.7074 3.32422 10.3262C3.32422 31.1898 5.39667 61.7435 36.4972 73.4243C67.5967 61.7444 69.6756 31.1898 69.6756 10.3262C64.9765 10.7074 50.0337 10.9926 36.4972 0Z" fill="#1D8044"/>
<path d="M51.7395 29.3179L33.2305 47.8817C32.1916 48.9237 30.5064 48.9237 29.4675 47.8817L21.2597 39.6496C20.2207 38.6075 20.2207 36.9174 21.2597 35.8754C22.2987 34.8333 23.9838 34.8333 25.0227 35.8754L31.3485 42.219L47.9747 25.5428C49.0136 24.5007 50.6987 24.5007 51.7377 25.5428C52.7767 26.5857 52.7767 28.2758 51.7377 29.3179H51.7395Z" fill="white"/>
<path style="mix-blend-mode:multiply" opacity="0.87" d="M72.5 82.8354C72.5 86.5712 56.3824 89.9998 36.5 89.9998C16.6176 89.9998 0.5 86.5712 0.5 82.8354C0.5 79.0996 16.6176 75.6709 36.5 75.6709C56.3824 75.6709 72.5 79.0996 72.5 82.8354Z" fill="url(#paint0_radial_1453_44470)" fill-opacity="0.8"/>
</g>
<defs>
<radialGradient id="paint0_radial_1453_44470" cx="0" cy="0" r="1" gradientUnits="userSpaceOnUse" gradientTransform="translate(36.5571 83.1025) scale(37.1283 7.0159)">
<stop stop-color="#A6A6A6"/>
<stop offset="0.45" stop-color="#D2D2D2"/>
<stop offset="0.93" stop-color="white"/>
</radialGradient>
<clipPath id="clip0_1453_44470">
<rect width="72" height="90" fill="white" transform="translate(0.5)"/>
</clipPath>
</defs>
</svg>
