<?xml version="1.0" encoding="UTF-8"?>
<svg version="1.1" xmlns="http://www.w3.org/2000/svg" width="2085" height="1370">
<path d="M0 0 C688.05 0 1376.1 0 2085 0 C2085 452.1 2085 904.2 2085 1370 C1396.95 1370 708.9 1370 0 1370 C0 917.9 0 465.8 0 0 Z " fill="#FEFEFE" transform="translate(0,0)"/>
<path d="M0 0 C688.05 0 1376.1 0 2085 0 C2085 452.1 2085 904.2 2085 1370 C1396.95 1370 708.9 1370 0 1370 C0 917.9 0 465.8 0 0 Z M88 83 C87.07767578 83.71736328 87.07767578 83.71736328 86.13671875 84.44921875 C79.81859495 90.01084879 74.53515853 99.65391286 73 108 C72.90544105 110.63650833 72.86403448 113.24615071 72.87119883 115.88246775 C72.86942382 116.68745845 72.86764881 117.49244916 72.86582002 118.32183352 C72.86105792 121.04161143 72.86345837 123.76133681 72.86577892 126.48111725 C72.86382689 128.45021211 72.86143839 130.41930658 72.85865095 132.38840044 C72.85222923 137.83710199 72.85209106 143.28578885 72.85292836 148.73449347 C72.85275929 154.64810827 72.84685797 160.56171772 72.8416875 166.47532988 C72.83343385 176.85240257 72.82893489 187.22947278 72.82696152 197.60654831 C72.82483416 208.74442612 72.82057702 219.8823 72.8137188 231.02017593 C72.81328818 231.72295667 72.81285757 232.4257374 72.8124139 233.14981452 C72.81065558 236.01202087 72.80888594 238.87422722 72.80710088 241.73643355 C72.78549323 276.45027029 72.77462092 311.16410782 72.76562465 345.87794975 C72.76269127 357.13394181 72.75932147 368.38993368 72.75565743 379.64592552 C72.75539914 380.43985094 72.75514085 381.23377636 72.75487473 382.05176013 C72.75382853 385.26362169 72.7527801 388.47548325 72.75172891 391.68734481 C72.73376356 446.62789392 72.71838406 501.56844334 72.71096988 556.50899498 C72.71038591 560.82517673 72.70978864 565.14135849 72.70919226 569.45754024 C72.70907414 570.31374005 72.70895602 571.16993987 72.70883433 572.05208512 C72.70763693 580.72669895 72.70642817 589.40131278 72.70520179 598.0759266 C72.70495656 599.81522201 72.7047127 601.55451743 72.70447022 603.29381284 C72.69668021 659.15564074 72.67429658 715.01744763 72.6417938 770.87926634 C72.61845005 811.01318631 72.59689729 851.14710211 72.58978748 891.28102875 C72.58964046 892.10630528 72.58949344 892.93158182 72.58934197 893.78186673 C72.58615722 911.89835205 72.58410627 930.01483732 72.58311442 948.13132289 C72.58269967 955.42061236 72.58214477 962.70990182 72.58155251 969.99919128 C72.58149184 970.79696436 72.58143117 971.59473744 72.58136866 972.41668546 C72.57935222 998.12052133 72.5651104 1023.8243324 72.5446075 1049.52815962 C72.52402989 1075.41745494 72.51613071 1101.3067216 72.52568527 1127.19602429 C72.52700373 1130.77355468 72.52818177 1134.3510851 72.52927589 1137.92861557 C72.52949574 1138.62991082 72.52971559 1139.33120608 72.5299421 1140.0537527 C72.53305645 1151.15830631 72.52272983 1162.26280511 72.50680034 1173.36734602 C72.4914154 1184.28661012 72.49063107 1195.20580775 72.50434858 1206.12507608 C72.51127246 1211.96620212 72.51182187 1217.80713946 72.49478849 1223.64824897 C72.47941765 1228.96242252 72.48247085 1234.27625517 72.50019877 1239.59041847 C72.50334783 1241.50062573 72.4997975 1243.41085885 72.48870702 1245.3210365 C72.40254076 1261.19650313 74.42807727 1272.80086342 85.5625 1284.75 C94.83632746 1293.31045612 104.22050334 1297.32529476 116.82261527 1297.251849 C117.6929162 1297.25477786 118.56321713 1297.25770673 119.45989082 1297.26072434 C122.3842781 1297.26811716 125.3084571 1297.26124538 128.2328434 1297.25447559 C130.35647465 1297.25686488 132.48010507 1297.2601297 134.60373378 1297.26419219 C140.46771149 1297.27284437 146.33162552 1297.26897238 152.19560428 1297.26313647 C158.56495436 1297.2589789 164.93429254 1297.26636095 171.30363977 1297.27228898 C182.47697249 1297.28107025 193.65028648 1297.28242465 204.82362175 1297.27878571 C216.81491823 1297.27491156 228.80620284 1297.27536115 240.7974987 1297.2810955 C241.554578 1297.28145433 242.3116573 1297.28181316 243.09167839 1297.28218286 C246.17515033 1297.28365776 249.25862226 1297.28516216 252.34209416 1297.28670432 C283.66322931 1297.30235059 314.98435632 1297.3050168 346.30549467 1297.30254826 C350.6359524 1297.30220981 354.96641012 1297.30188771 359.29686785 1297.30158257 C360.15703346 1297.30152153 361.01719907 1297.30146049 361.9034303 1297.30139759 C380.96518332 1297.30012576 400.02693521 1297.3027271 419.08868789 1297.30610864 C423.44133636 1297.3068794 427.79398484 1297.30762413 432.14663332 1297.30837366 C433.89358366 1297.30867535 435.640534 1297.30897723 437.38748434 1297.3092793 C438.25342707 1297.30942898 439.11936981 1297.30957866 440.01155323 1297.30973287 C441.76313328 1297.31003641 443.51471332 1297.31034109 445.26629336 1297.31064692 C494.98542913 1297.31932321 544.7045639 1297.32396194 594.42370033 1297.31969929 C595.80524832 1297.3195822 595.80524832 1297.3195822 597.21470637 1297.31946275 C607.48504157 1297.31858996 617.75537677 1297.3176607 628.02571197 1297.31671212 C628.95295652 1297.31662661 629.88020108 1297.3165411 630.83554395 1297.316453 C636.46031929 1297.31593421 636.46031929 1297.31593421 642.08509463 1297.31541077 C701.32919683 1297.30988115 760.57328343 1297.3173981 819.81738281 1297.33618164 C834.73091949 1297.34090417 849.64445617 1297.34558484 864.55799294 1297.3500185 C865.93557144 1297.35042848 865.93557144 1297.35042848 867.34097981 1297.35084675 C895.67296999 1297.35922583 924.00495888 1297.36389847 952.3369503 1297.36472607 C953.67242825 1297.36476562 953.67242825 1297.36476562 955.03488555 1297.36480596 C974.58566628 1297.36534691 994.13644692 1297.36497393 1013.68722763 1297.36376625 C1020.68434515 1297.36334066 1027.68146268 1297.36297552 1034.67858021 1297.36263681 C1036.41920024 1297.36255151 1038.15982028 1297.36246257 1039.90044032 1297.36236999 C1067.57762289 1297.36092426 1095.25479484 1297.36802819 1122.93197486 1297.37937395 C1151.61824653 1297.39105706 1180.3044993 1297.39155197 1208.99077107 1297.37953053 C1212.08067051 1297.37827884 1215.17056996 1297.37707534 1218.26046944 1297.37590981 C1219.01873103 1297.37561951 1219.77699262 1297.37532922 1220.55823184 1297.37503013 C1232.49735047 1297.37072818 1244.43644196 1297.37639437 1256.37555633 1297.38635 C1268.15587691 1297.39595854 1279.93615301 1297.39436976 1291.71647142 1297.38214377 C1298.00148419 1297.37592255 1304.28640008 1297.37419432 1310.57140703 1297.38600711 C1344.06457665 1297.44473883 1377.24614398 1296.58332861 1410.4375 1291.6875 C1411.15973755 1291.58361969 1411.8819751 1291.47973938 1412.62609863 1291.37271118 C1474.36860774 1282.4726278 1533.75308907 1263.77065805 1590 1237 C1591.11906738 1236.46874512 1592.23813477 1235.93749023 1593.39111328 1235.39013672 C1608.73739821 1228.04855708 1623.42027996 1219.75305773 1638 1211 C1639.57790591 1210.06473443 1641.15601637 1209.12981384 1642.734375 1208.1953125 C1667.46737839 1193.43761849 1690.89523325 1176.44219502 1713 1158 C1713.88558594 1157.26305908 1713.88558594 1157.26305908 1714.7890625 1156.51123047 C1721.12835207 1151.22552799 1727.37657002 1145.84942043 1733.47680664 1140.2878418 C1735.02209562 1138.88669008 1736.57511707 1137.49393633 1738.14111328 1136.1159668 C1745.28834606 1129.8055098 1752.03138307 1123.1212995 1758.76000977 1116.37036133 C1760.69109547 1114.43389451 1762.62749882 1112.50286044 1764.56445312 1110.57226562 C1770.58931773 1104.5509827 1776.51200471 1098.52157546 1782 1092 C1783.04444864 1090.80776587 1784.0913386 1089.61766614 1785.140625 1088.4296875 C1791.85498887 1080.77029958 1798.30562145 1072.96753304 1804.52392578 1064.90136719 C1806.11475862 1062.85217663 1807.72572312 1060.81995322 1809.33984375 1058.7890625 C1817.73624344 1048.18480729 1825.5347922 1037.2775326 1833 1026 C1833.49129395 1025.25830566 1833.98258789 1024.51661133 1834.48876953 1023.75244141 C1885.16088056 946.95225699 1918.87256373 859.47968352 1932.3125 759.8125 C1932.45985596 758.61149658 1932.60721191 757.41049316 1932.7590332 756.1730957 C1933.22142768 752.11935619 1933.62711373 748.06274087 1934 744 C1934.08613556 743.07047516 1934.17227112 742.14095032 1934.26101685 741.18325806 C1935.86692978 723.32667672 1936.36710854 705.55236728 1936.31805801 687.62904358 C1936.31239705 685.52422001 1936.30958948 683.41940456 1936.30697632 681.3145752 C1936.26937986 660.45749007 1935.80566238 639.76136581 1933.25 619.04034424 C1932.98999033 616.91830735 1932.74224282 614.79507331 1932.49609375 612.67138672 C1922.49012484 527.37207188 1894.09638856 444.69999755 1828 337 C1827.27756104 335.95150879 1827.27756104 335.95150879 1826.54052734 334.88183594 C1810.83786954 312.23208354 1793.27964572 290.87460045 1774.53930664 270.68286133 C1773.36149004 269.39520235 1772.19631638 268.09596837 1771.03686523 266.79174805 C1765.37043983 260.4213255 1759.47863902 254.32739221 1753.4375 248.3125 C1752.54353516 247.41466797 1751.64957031 246.51683594 1750.72851562 245.59179688 C1746.19493744 241.06485158 1741.60705262 236.67233419 1736.74487305 232.49975586 C1734.33924057 230.43206308 1732.01738088 228.27733164 1729.6875 226.125 C1725.25503526 222.08720678 1720.72257823 218.22692566 1716.0546875 214.46484375 C1713.8168842 212.65914825 1711.59518101 210.84020688 1709.3828125 209.00390625 C1700.31063904 201.50180686 1690.98313529 194.46735646 1681.36816406 187.67675781 C1678.94304954 185.95967673 1676.52983709 184.22672835 1674.1171875 182.4921875 C1663.48675262 174.89544051 1652.61117595 167.9355775 1641.32275391 161.35986328 C1639.18743016 160.10973156 1637.06601511 158.83977127 1634.94921875 157.55859375 C1564.80400907 115.26938563 1485.70558043 88.80183283 1367 74 C1365.77260108 73.91778825 1364.54520216 73.83557651 1363.28060933 73.75087349 C1351.33099857 72.99186396 1339.42379173 72.85609279 1327.45311928 72.86577892 C1325.32104066 72.86382153 1323.18896241 72.861431 1321.05688471 72.85865095 C1315.22092212 72.8522965 1309.38497339 72.85208565 1303.54900801 72.85292836 C1297.19125875 72.85275796 1290.83351431 72.84684186 1284.47576749 72.8416875 C1273.34060798 72.83346715 1262.20545191 72.82894191 1251.07028961 72.82696152 C1239.12878874 72.82482843 1227.18729152 72.82055735 1215.24579239 72.8137188 C1214.49015505 72.81328818 1213.73451772 72.81285757 1212.95598228 72.8124139 C1209.87814962 72.81065544 1206.80031697 72.80888579 1203.72248433 72.80710088 C1166.47818407 72.7855442 1129.23388311 72.77463086 1091.98957804 72.76562465 C1079.91421339 72.76268853 1067.83884892 72.75931837 1055.76348448 72.75565743 C1054.91101231 72.75539914 1054.05854014 72.75514085 1053.18023549 72.75487473 C1049.73109419 72.75382845 1046.28195289 72.75278002 1042.8328116 72.75172891 C983.85173178 72.73377111 924.87065167 72.71839145 865.88956951 72.71096988 C861.26068705 72.71038592 856.6318046 72.70978865 852.00292214 72.70919226 C851.08472005 72.70907414 850.16651797 72.70895602 849.22049157 72.70883433 C839.91814844 72.70763697 830.61580531 72.7064282 821.31346218 72.70520179 C819.44834745 72.70495656 817.58323271 72.7047127 815.71811798 72.70447022 C755.77971346 72.6966756 695.8413285 72.67427698 635.90293253 72.6417938 C592.81501109 72.61845045 549.72709353 72.59689818 506.63916588 72.58978748 C505.75325872 72.58964046 504.86735156 72.58949344 503.95459873 72.58934197 C484.50807165 72.58615736 465.0615446 72.58410631 445.61501728 72.58311442 C437.79111884 72.58269968 429.96722042 72.58214479 422.14332199 72.58155251 C421.28706705 72.58149184 420.4308121 72.58143117 419.54861004 72.58136866 C391.96447886 72.57935249 364.38037078 72.56511329 336.79624766 72.5446075 C309.0231115 72.52403426 281.25000207 72.51612869 253.47685905 72.52568527 C249.63983982 72.52700373 245.80282055 72.52818177 241.96580124 72.52927589 C241.21364446 72.52949574 240.46148769 72.52971559 239.68653828 72.5299421 C227.77441056 72.53305702 215.8623339 72.52272767 203.95021801 72.50680034 C192.23875286 72.49141986 180.52737361 72.49062709 168.81590426 72.50434858 C162.55066007 72.51127478 156.28559184 72.51181392 150.02036305 72.49478849 C144.32152993 72.4794279 138.62301483 72.48245997 132.92419132 72.50019877 C130.87476827 72.50335015 128.82532116 72.49978901 126.77592566 72.48870702 C112.09095368 72.41446766 99.92315222 73.52143992 88 83 Z " fill="#F95C00" transform="translate(0,0)"/>
<path d="M0 0 C688.05 0 1376.1 0 2085 0 C2085 452.1 2085 904.2 2085 1370 C1396.95 1370 708.9 1370 0 1370 C0 917.9 0 465.8 0 0 Z M64.3125 74.0625 C51.97342837 89.83030481 49.54505419 107.07280996 49.61968327 126.48556137 C49.61624698 128.46618274 49.61149831 130.44680218 49.6055623 132.42741764 C49.59305744 137.87089578 49.59920058 143.31421713 49.60839598 148.75769598 C49.61510434 154.67957059 49.60444036 160.60141819 49.59600013 166.52328706 C49.58362145 176.90257204 49.58232364 187.28182175 49.58855057 197.66110992 C49.59518244 208.79563845 49.59529811 219.93013866 49.58750343 231.06466675 C49.58701543 231.76849498 49.58652744 232.47232321 49.58602465 233.19747957 C49.58401642 236.06417099 49.58196331 238.93086238 49.57985291 241.79755373 C49.55846081 270.88653072 49.55639694 299.97548678 49.56190995 329.06446966 C49.56266568 333.08293078 49.56339329 337.1013919 49.56409192 341.11985302 C49.56423101 341.91803345 49.5643701 342.71621388 49.56451341 343.5385816 C49.56746642 361.23201501 49.56445219 378.92544592 49.56019563 396.61887888 C49.55961348 399.04084901 49.55904463 401.46281914 49.55848 403.88478927 C49.55696503 410.37738474 49.55543812 416.86998022 49.55388699 423.36257568 C49.54313089 468.68426195 49.53842777 514.00594588 49.54635715 559.3276329 C49.54650546 560.18186389 49.54665377 561.03609488 49.54680657 561.91621166 C49.54846555 571.44167904 49.55021513 580.9671464 49.55199958 590.49261376 C49.5521606 591.35261432 49.55232163 592.21261489 49.55248753 593.09867607 C49.553465 598.31553864 49.553465 598.31553864 49.55444872 603.53240121 C49.56483985 658.54016758 49.55707418 713.54790197 49.53344727 768.55566406 C49.5275038 782.41597361 49.52161221 796.27628317 49.51603794 810.13659286 C49.51569417 810.99004104 49.5153504 811.84348922 49.51499621 812.72279947 C49.50446768 839.02879363 49.4988748 865.33478513 49.4984808 891.6407814 C49.49846162 892.87971736 49.49846162 892.87971736 49.49844206 894.14368233 C49.49821376 912.27581408 49.49921993 930.40794559 49.50135112 948.5400772 C49.50210587 955.02812367 49.50278408 961.51617015 49.50343127 968.00421662 C49.50359396 969.61825715 49.50376162 971.23229768 49.50393428 972.84633821 C49.50665471 998.55720176 49.49810444 1024.26804587 49.48408018 1049.97890524 C49.46966801 1076.59608788 49.4701283 1103.21323359 49.4874549 1129.83041498 C49.48925905 1132.69018629 49.49099924 1135.54995763 49.49268913 1138.409729 C49.49310963 1139.11155666 49.49353013 1139.81338432 49.49396338 1140.53647948 C49.50025503 1151.63813346 49.49316651 1162.73973659 49.48047993 1173.8413834 C49.46828126 1184.76427441 49.47075958 1195.6870946 49.48770025 1206.60998125 C49.49635081 1212.45013155 49.49871062 1218.29009593 49.48343093 1224.13023683 C49.4696489 1229.44811638 49.47442784 1234.7656509 49.49371612 1240.08351038 C49.49743738 1241.99055103 49.49453335 1243.89761977 49.48400303 1245.80463497 C49.37829966 1266.37230387 52.96662037 1284.44532547 67.7734375 1299.796875 C68.50820312 1300.52390625 69.24296875 1301.2509375 70 1302 C70.59039062 1302.62390625 71.18078125 1303.2478125 71.7890625 1303.890625 C75.91808072 1307.92869568 80.59725853 1310.61455391 85.6875 1313.25 C86.62154663 1313.7442749 86.62154663 1313.7442749 87.57446289 1314.24853516 C98.02513028 1319.39813938 109.10312377 1320.44479954 120.59307653 1320.37719816 C121.90697747 1320.38152934 123.22087842 1320.38586052 124.57459455 1320.39032295 C128.20525355 1320.40186526 131.83567112 1320.39490782 135.46632553 1320.38479719 C139.43707204 1320.37709124 143.40778338 1320.38691532 147.37852493 1320.3944377 C154.35907138 1320.40525977 161.33954862 1320.40495172 168.32009832 1320.39736467 C178.77028143 1320.38606089 189.22040613 1320.39207407 199.67058863 1320.40142866 C217.48164411 1320.41686164 235.29267517 1320.41803527 253.10373497 1320.41144943 C271.15409807 1320.40482316 289.2044437 1320.40469485 307.25480652 1320.41249657 C308.39477114 1320.41298457 309.53473576 1320.41347256 310.70924477 1320.41397535 C315.35212785 1320.41598352 319.99501091 1320.41803662 324.63789395 1320.42014709 C371.77760428 1320.4415523 418.91730169 1320.44360076 466.05701565 1320.43809005 C472.57152644 1320.43733435 479.08603723 1320.43660673 485.60054803 1320.43590808 C486.89446506 1320.43576899 488.18838208 1320.4356299 489.52150872 1320.43548659 C518.18928969 1320.43253503 546.85706911 1320.43554636 575.5248498 1320.43980437 C579.44768135 1320.44038652 583.3705129 1320.44095537 587.29334445 1320.44152 C597.80895594 1320.44303493 608.32456742 1320.44456184 618.8401789 1320.44611301 C648.23687539 1320.45042068 677.63357195 1320.45366837 707.03026867 1320.45603275 C708.03410925 1320.45611391 708.03410925 1320.45611391 709.05822944 1320.45619671 C752.39983202 1320.45967917 795.74143303 1320.45832317 839.08303547 1320.45364285 C840.48106909 1320.45349296 841.87910271 1320.45334315 843.27713633 1320.45319343 C858.71105751 1320.45153686 874.14497868 1320.44978521 889.57889984 1320.44800042 C890.6238942 1320.44787967 890.6238942 1320.44787967 891.68999957 1320.44775648 C893.80197697 1320.44751242 895.91395437 1320.44726823 898.02593178 1320.44702397 C898.72315819 1320.44694334 899.4203846 1320.44686271 900.13873908 1320.44677963 C903.66167589 1320.44637195 907.1846127 1320.44596285 910.70754951 1320.44555128 C980.78748601 1320.43737231 1050.86741375 1320.43550051 1176.01597041 1320.46599259 C1199.18235819 1320.47213189 1222.34874598 1320.47821435 1245.51513386 1320.48396206 C1246.20675532 1320.48413407 1246.89837678 1320.48430609 1247.61095646 1320.48448332 C1290.92708841 1320.49524369 1334.24321863 1320.50112904 1377.55935192 1320.5015192 C1378.56288958 1320.50152898 1378.56288958 1320.50152898 1379.58670072 1320.50153895 C1409.62797077 1320.50182045 1439.66924067 1320.50082926 1469.71051065 1320.49864888 C1480.2177268 1320.4978941 1490.72494295 1320.4972159 1501.2321591 1320.49656873 C1503.84612707 1320.49640604 1506.46009505 1320.49623838 1509.07406302 1320.49606572 C1550.74278352 1320.49334338 1592.41149205 1320.50190371 1634.08020998 1320.51591982 C1677.20725748 1320.53032012 1720.33428218 1320.52988681 1763.4613289 1320.5125451 C1768.09121601 1320.51074089 1772.72110314 1320.5090007 1777.3509903 1320.50731087 C1778.48725546 1320.50689037 1779.62352063 1320.50646987 1780.79421808 1320.50603662 C1798.79576507 1320.49973554 1816.79728078 1320.50684794 1834.79882336 1320.51952007 C1852.49399463 1320.53169394 1870.18911645 1320.52961139 1887.88428396 1320.51229975 C1898.2616776 1320.50257284 1908.63893088 1320.50378148 1919.01631536 1320.52112973 C1925.90851663 1320.53155844 1932.8006109 1320.52747888 1939.69280155 1320.51161324 C1943.5996763 1320.50302465 1947.50627322 1320.50056507 1951.41313324 1320.51599697 C1976.23624066 1320.60725071 1997.63875419 1319.31280479 2016.2734375 1300.890625 C2032.17852177 1284.02850128 2035.46638251 1265.74156848 2035.38031673 1243.40700817 C2035.38375377 1241.42692673 2035.38850293 1239.44684722 2035.3944377 1237.46677169 C2035.40693214 1232.02945464 2035.40080412 1226.59229475 2035.39160402 1221.15497703 C2035.3848915 1215.23804297 2035.39556173 1209.32113585 2035.40399987 1203.40420753 C2035.41637459 1193.03514764 2035.41767811 1182.66612309 2035.41144943 1172.29706001 C2035.40481614 1161.17423942 2035.40470366 1150.05144717 2035.41249657 1138.92862701 C2035.41298457 1138.22538003 2035.41347256 1137.52213305 2035.41397535 1136.79757556 C2035.41598359 1133.93322499 2035.4180367 1131.06887447 2035.42014709 1128.20452398 C2035.4415356 1099.14397951 2035.44360373 1070.08345599 2035.43809005 1041.02290562 C2035.43733432 1037.00883113 2035.4366067 1032.99475664 2035.43590808 1028.98068213 C2035.43576899 1028.18336838 2035.4356299 1027.38605463 2035.43548659 1026.56457986 C2035.43253327 1008.88846155 2035.43554811 991.21234575 2035.43980437 973.53622789 C2035.44038652 971.11646021 2035.44095537 968.69669253 2035.44152 966.27692485 C2035.44303498 959.79020764 2035.44456189 953.30349043 2035.44611301 946.81677322 C2035.45686855 901.53831067 2035.46157278 856.25985045 2035.45364285 810.98138714 C2035.45349454 810.12803004 2035.45334623 809.27467293 2035.45319343 808.39545653 C2035.45153446 798.87978035 2035.44978487 789.36410419 2035.44800042 779.84842803 C2035.4478394 778.98931482 2035.44767837 778.13020162 2035.44751247 777.24505467 C2035.446535 772.0335767 2035.446535 772.0335767 2035.44555128 766.82209872 C2035.43515971 711.86877311 2035.4429269 656.91547953 2035.46655273 601.9621582 C2035.47249621 588.11492004 2035.4783878 574.26768186 2035.48396206 560.42044353 C2035.48430583 559.56779809 2035.4846496 558.71515264 2035.48500379 557.83666945 C2035.49553229 531.55548205 2035.50112519 505.27429731 2035.5015192 478.9931078 C2035.50153199 478.16793354 2035.50154477 477.34275929 2035.50155794 476.49257975 C2035.50178624 458.37768427 2035.50078007 440.26278902 2035.49864888 422.14789367 C2035.49789413 415.66604345 2035.49721592 409.18419322 2035.49656873 402.702343 C2035.49640604 401.08984843 2035.49623838 399.47735386 2035.49606572 397.86485929 C2035.49334534 372.17913621 2035.5018953 346.49343258 2035.51591982 320.80771368 C2035.5303319 294.21721025 2035.52987178 267.62674379 2035.5125451 241.03624161 C2035.51074095 238.17935317 2035.50900076 235.32246469 2035.50731087 232.46557617 C2035.50668012 231.41389679 2035.50668012 231.41389679 2035.50603662 230.34097137 C2035.49974501 219.25057955 2035.50683344 208.16023863 2035.51952007 197.06985398 C2035.53171878 186.15804895 2035.52924036 175.24631481 2035.51229975 164.33451413 C2035.50364926 158.50032077 2035.50128921 152.66631351 2035.51656907 146.83212956 C2035.53035127 141.51966752 2035.52557194 136.20755085 2035.50628388 130.89510889 C2035.50256268 128.99003173 2035.50546649 127.08492646 2035.51599697 125.17987477 C2035.62984665 103.05023277 2030.87055319 84.04612981 2014.83984375 67.8125 C2000.02476161 54.01644467 1982.91780549 49.83801423 1963.17891324 49.87119883 C1961.2239175 49.86853632 1961.2239175 49.86853632 1959.2294269 49.86582002 C1955.60052569 49.8610226 1951.97164936 49.86245425 1948.34274676 49.86487772 C1944.38428767 49.86641922 1940.42583408 49.86216357 1936.46737683 49.85865095 C1929.49914923 49.85327417 1922.53092837 49.8516343 1915.56269886 49.8524017 C1905.13083544 49.85353625 1894.6989799 49.84895879 1884.26711826 49.84327086 C1866.489565 49.83375435 1848.71201333 49.82905095 1830.93445778 49.82696152 C1812.9122169 49.82483401 1794.88997845 49.82057653 1776.86773872 49.8137188 C1775.7304865 49.81328818 1774.59323427 49.81285757 1773.42151986 49.8124139 C1768.78983842 49.81065558 1764.15815699 49.80888594 1759.52647556 49.80710088 C1703.35598378 49.78549485 1647.18549151 49.77462135 1591.01499651 49.76562465 C1572.80236155 49.76269125 1554.58972671 49.75932144 1536.37709188 49.75565743 C1535.09247923 49.75539914 1533.80786658 49.75514085 1532.48432627 49.75487473 C1527.28736722 49.75382853 1522.09040818 49.7527801 1516.89344913 49.75172891 C1434.95854766 49.73517048 1353.02364562 49.71992978 1250.21103638 49.71096988 C1243.92700489 49.71044542 1237.64297341 49.70990811 1231.35894192 49.70937142 C1229.26034854 49.70919221 1227.16175515 49.70901325 1225.06316176 49.70883433 C1211.7313718 49.70769725 1198.39958184 49.70655118 1185.06779188 49.70538613 C1181.55042375 49.70507882 1178.03305562 49.70477288 1174.51568749 49.70447022 C1108.08697369 49.69875063 1041.65826372 49.68950847 975.22955322 49.66705322 C974.53028848 49.66681699 973.83102374 49.66658077 973.11056916 49.66633738 C950.55940796 49.65870949 928.00824692 49.65066067 905.45708589 49.64255211 C883.74247894 49.63474448 862.02787196 49.62702104 840.31326485 49.61966228 C839.62300519 49.6194282 838.93274554 49.61919411 838.22156892 49.61895292 C794.98900571 49.60431508 751.75644353 49.59451415 708.5238781 49.58978748 C707.52222699 49.58967709 707.52222699 49.58967709 706.50034051 49.58956447 C676.51495716 49.58626604 646.52957383 49.58412911 616.54419032 49.58311442 C604.75084362 49.58269967 592.95749693 49.58214477 581.16415024 49.58155251 C579.87343021 49.58149184 578.58271018 49.58143117 577.25287743 49.58136866 C535.66030624 49.57935191 494.06775036 49.56510793 452.47518451 49.5446075 C410.58610266 49.52403412 368.69703853 49.51612853 326.80795214 49.52568527 C321.02072541 49.52700374 315.23349867 49.52818178 309.4462719 49.52927589 C308.31180587 49.52949574 307.17733985 49.52971559 306.00849606 49.5299421 C288.03822951 49.53305758 270.06799681 49.52272542 252.09773811 49.50680034 C234.43140068 49.49142307 216.7651101 49.49028985 199.09877105 49.50434858 C188.7392919 49.51216396 178.37995586 49.50903083 168.02049098 49.48971142 C161.13882739 49.47797111 154.25726828 49.4807636 147.37561035 49.49532606 C143.47552746 49.50317356 139.57572441 49.50491113 135.67566095 49.48870702 C107.73080542 49.38031635 83.91933918 51.74442842 64.3125 74.0625 Z " fill="#FEFEFE" transform="translate(0,0)"/>
<path d="M0 0 C24.81743079 21.32081683 41.25096329 50.38082064 47.96582031 82.31835938 C48.27519531 83.77435547 48.27519531 83.77435547 48.59082031 85.25976562 C54.99052157 121.48029705 45.88560465 159.74934952 25.23120117 189.96337891 C20.61130727 196.50770864 15.51084334 202.54035219 9.96582031 208.31835938 C9.14726563 209.20007813 8.32871094 210.08179688 7.48535156 210.99023438 C-4.84852644 223.88888374 -19.07850164 232.54076168 -35.03417969 240.31835938 C-36.51724609 241.07246094 -36.51724609 241.07246094 -38.03027344 241.84179688 C-63.89994163 253.91174608 -97.60917089 256.23700793 -124.97314453 248.86523438 C-126.93607193 248.34439128 -128.91677614 247.89196746 -130.89746094 247.44335938 C-151.36893685 242.60110953 -170.1943282 232.04983473 -186.03417969 218.31835938 C-186.85144531 217.62226562 -187.66871094 216.92617188 -188.51074219 216.20898438 C-209.59628301 197.79993635 -225.86972117 172.82889498 -232.03417969 145.31835938 C-232.31777344 144.10277344 -232.60136719 142.8871875 -232.89355469 141.63476562 C-237.91554353 119.24901346 -238.36936097 94.49149387 -232.03417969 72.31835938 C-231.81987305 71.55281738 -231.60556641 70.78727539 -231.38476562 69.99853516 C-221.10575911 34.26140696 -197.10793458 3.46228675 -164.84667969 -15.05664062 C-162.58807574 -16.28768152 -160.31759367 -17.497253 -158.03417969 -18.68164062 C-156.50277344 -19.47828125 -156.50277344 -19.47828125 -154.94042969 -20.29101562 C-104.02587714 -45.23400349 -43.15638849 -35.6770528 0 0 Z " fill="#F53B00" transform="translate(1125.0341796875,572.681640625)"/>
<path d="M0 0 C103.18842698 0 103.18842698 0 120.9375 5.0625 C122.56800293 5.51713623 122.56800293 5.51713623 124.23144531 5.98095703 C144.91173364 11.97117201 162.54842077 21.08386556 179 35 C179.68449219 35.55042969 180.36898437 36.10085938 181.07421875 36.66796875 C186.86691842 41.45918007 191.44568023 47.04195153 196 53 C196.7321875 53.94359375 197.464375 54.8871875 198.21875 55.859375 C209.22369807 70.81680441 216.38620755 87.83372174 220 106 C220.27493286 107.3152063 220.27493286 107.3152063 220.55541992 108.65698242 C222.17530371 117.16766349 222.35938344 125.56057979 222.3125 134.1875 C222.31001251 134.91810638 222.30752502 135.64871277 222.30496216 136.40145874 C222.24822126 147.17147054 222.02084424 157.5840882 219 168 C218.7848877 168.75394043 218.56977539 169.50788086 218.34814453 170.28466797 C212.75791902 189.17302668 203.92529027 207.07078876 191 222 C190.57251465 222.50289551 190.1450293 223.00579102 189.70458984 223.52392578 C178.88444491 236.18818582 166.67073594 246.1123847 152 254 C151.41025391 254.31952637 150.82050781 254.63905273 150.21289062 254.96826172 C142.72673633 258.94190577 135.04712023 261.82684608 126.9375 264.25 C126.17872559 264.48420654 125.41995117 264.71841309 124.63818359 264.9597168 C86.00659435 275.81439163 34.95673194 270 0 270 C0 180.9 0 91.8 0 0 Z " fill="#010101" transform="translate(142,547)"/>
<path d="M0 0 C99.31145585 0 99.31145585 0 114.75 4.3125 C115.94592773 4.63951904 115.94592773 4.63951904 117.16601562 4.97314453 C138.02909211 10.84774765 154.73081636 21.88823504 165.65625 40.87890625 C176.10961498 60.53020758 176.82607937 85.74030662 171 107 C165.47003397 125.00714809 154.48204305 138.83615575 138 148 C129.93750721 152.13583062 122.20694711 156 113 156 C120.2400906 165.90541751 127.54224345 175.75712434 135 185.5 C140.65133681 192.88348238 146.21059843 200.32587369 151.7043457 207.82714844 C156.79438712 214.76017322 162.00834867 221.59492315 167.23461914 228.42553711 C171.64188449 234.19409917 175.98528009 240.00292407 180.25488281 245.87402344 C182.3218816 248.71594909 184.4020816 251.54407425 186.53125 254.33984375 C187.72234375 255.90412109 187.72234375 255.90412109 188.9375 257.5 C189.62714844 258.3971875 190.31679687 259.294375 191.02734375 260.21875 C193.26687942 263.37627355 195.09799107 266.62898794 197 270 C139.16323606 275.53683396 139.16323606 275.53683396 127.03613281 267.1640625 C119.43708645 260.39233742 115.55810089 250.64424085 111.88183594 241.37011719 C109.13738626 234.64843852 104.87099139 229.02528375 100.625 223.1875 C99.31840074 221.29003953 98.01854519 219.38791169 96.7265625 217.48046875 C96.10740967 216.57192139 95.48825684 215.66337402 94.8503418 214.72729492 C90.01988281 207.60748263 85.2772731 200.43361611 80.59130859 193.21821594 C78.44081402 189.91716645 76.27179899 186.62851794 74.09985352 183.34155273 C72.9820265 181.64092562 71.87211066 179.93507467 70.76977539 178.22436523 C69.15720303 175.72538846 67.51742128 173.24635865 65.87109375 170.76953125 C65.3854747 170.00300735 64.89985565 169.23648346 64.39952087 168.44673157 C63.92535233 167.74477158 63.45118378 167.04281158 62.96264648 166.31958008 C62.55819809 165.70069412 62.15374969 165.08180817 61.73704529 164.44416809 C59.46648969 162.29981787 59.46648969 162.29981787 53 162 C53 197.64 53 233.28 53 270 C35.51 270 18.02 270 0 270 C0 180.9 0 91.8 0 0 Z " fill="#010101" transform="translate(1626,547)"/>
<path d="M0 0 C49.17 0 98.34 0 149 0 C149 15.18 149 30.36 149 46 C116.99 46 84.98 46 52 46 C52 65.8 52 85.6 52 106 C82.69 106 113.38 106 145 106 C145 121.18 145 136.36 145 152 C114.31 152 83.62 152 52 152 C52 175.76 52 199.52 52 224 C84.01 224 116.02 224 149 224 C149 239.18 149 254.36 149 270 C99.83 270 50.66 270 0 270 C0 180.9 0 91.8 0 0 Z " fill="#000000" transform="translate(1443,547)"/>
<path d="M0 0 C-1.58315063 3.50436989 -3.67720321 6.38053351 -6 9.4375 C-6.39227783 9.95538086 -6.78455566 10.47326172 -7.1887207 11.00683594 C-10.58885756 15.48666891 -14.02132421 19.94205608 -17.45654297 24.39501953 C-20.67578274 28.56895674 -23.85061437 32.77319297 -27 37 C-27.969375 36.154375 -28.93875 35.30875 -29.9375 34.4375 C-44.13987963 22.32118418 -56.78800867 14.51319797 -76.01464844 15.78857422 C-85.71224391 16.82129897 -95.1858577 20.7189689 -101.8125 27.98828125 C-107.56958079 35.33686274 -108.94329209 41.71220098 -108 51 C-106.20703272 57.71795335 -101.69265988 62.26593359 -96 66 C-85.55835835 71.89730132 -74.28189196 76.12540584 -63.125 80.4375 C-45.55155111 87.2403163 -28.81725861 94.16608205 -14 106 C-12.9790625 106.80566406 -11.958125 107.61132812 -10.90625 108.44140625 C1.36454508 119.24432396 7.58781884 133.96121442 9 150 C9.21796476 154.27196953 9.2932391 158.53531727 9.3125 162.8125 C9.31805908 163.84971191 9.32361816 164.88692383 9.3293457 165.95556641 C9.11101962 189.37430449 0.05737941 210.78313654 -16.41015625 227.4375 C-29.32983971 239.55866103 -43.97757983 245.98928862 -61 250 C-61.86753906 250.22816406 -62.73507812 250.45632813 -63.62890625 250.69140625 C-88.38663647 256.37415974 -119.13354068 250.87410097 -140.5625 237.75 C-152.83906248 229.58326375 -163.51480453 219.6471361 -172.6875 208.125 C-173.13424072 207.5774707 -173.58098145 207.02994141 -174.04125977 206.46582031 C-176.97402064 202.66185522 -176.97402064 202.66185522 -177.08203125 199.91015625 C-175.50143368 197.11985945 -173.42480834 195.41114526 -171 193.3125 C-164.63803212 187.71115919 -158.69640736 181.73962396 -152.7890625 175.66333008 C-152.09554688 174.95845459 -151.40203125 174.2535791 -150.6875 173.52734375 C-150.07261719 172.89562256 -149.45773437 172.26390137 -148.82421875 171.61303711 C-146.97634141 169.97908026 -145.24841674 168.99050699 -143 168 C-142.50371094 168.70125 -142.00742187 169.4025 -141.49609375 170.125 C-130.87616656 184.95662507 -119.79875054 196.77710065 -101.375 201.375 C-87.47422277 203.55551408 -72.50578492 203.5018204 -60.625 195.1875 C-52.66598598 188.56599663 -49.24122938 181.72368813 -46 172 C-45.07622539 161.20243779 -46.57781075 152.97310001 -53.3125 144.375 C-56.73012917 140.87270721 -60.3460105 138.4203692 -64.65234375 136.16015625 C-65.30229309 135.81689804 -65.95224243 135.47363983 -66.62188721 135.11997986 C-73.79953389 131.43645691 -81.28280919 128.66446052 -88.86056519 125.92810059 C-92.94602567 124.44809495 -97.01435966 122.92263338 -101.08203125 121.39453125 C-101.86949234 121.09872162 -102.65695343 120.80291199 -103.46827698 120.49813843 C-125.41575097 112.20294544 -146.48087938 101.48871487 -158 80 C-162.6336583 69.56724814 -163.20048007 60.09685342 -163.25 48.8125 C-163.270625 47.65685547 -163.29125 46.50121094 -163.3125 45.31054688 C-163.36165842 34.36665471 -161.3900824 24.5989663 -156.3125 14.875 C-155.96582275 14.19832275 -155.61914551 13.52164551 -155.26196289 12.82446289 C-152.16534173 6.96721759 -148.46859108 1.89808757 -144 -3 C-143.48308594 -3.6084375 -142.96617187 -4.216875 -142.43359375 -4.84375 C-105.54333449 -45.52473765 -37.28542415 -31.46166849 0 0 Z " fill="#010101" transform="translate(638,572)"/>
<path d="M0 0 C18.81 0 37.62 0 57 0 C60.78055594 8.19120453 64.38933474 16.23708934 67.625 24.625 C68.31931886 26.40682587 69.01366199 28.18864233 69.70843506 29.97029114 C70.51287216 32.03458157 71.31558285 34.09953813 72.11816406 36.16455078 C76.06151 46.30393445 80.03169034 56.43286744 84 66.5625 C84.43703247 67.67840515 84.87406494 68.7943103 85.32434082 69.94403076 C91.42797628 85.52269628 97.61052433 101.06165387 103.98486328 116.53173828 C107.61038184 125.34703232 111.09514485 134.2036473 114.38647461 143.14990234 C117.5001862 151.50327355 120.95835293 159.72290229 124.39331055 167.94824219 C124.85906494 169.07520508 125.32481934 170.20216797 125.8046875 171.36328125 C126.22733887 172.37688721 126.64999023 173.39049316 127.08544922 174.43481445 C128 177 128 177 128 180 C128.66 180 129.32 180 130 180 C130.12479736 179.28054199 130.24959473 178.56108398 130.37817383 177.81982422 C130.99874167 175.00570619 131.86612574 172.550878 132.94921875 169.8828125 C133.37372314 168.82956787 133.79822754 167.77632324 134.2355957 166.69116211 C134.71472412 165.51432861 135.19385254 164.33749512 135.6875 163.125 C136.20648512 161.84078289 136.72493612 160.55634983 137.24291992 159.27172852 C138.123054 157.08897869 139.00351571 154.90636641 139.88539124 152.72431946 C142.66234451 145.85048937 145.41513694 138.96711135 148.1640625 132.08203125 C156.82123513 110.40102978 165.48110044 88.72156125 174.27709961 67.09643555 C178.05373456 57.81006364 181.8085247 48.51512976 185.55078125 39.21484375 C186.52330847 36.79970412 187.4958834 34.3845837 188.46850586 31.96948242 C189.91698788 28.37278193 191.36465326 24.77576483 192.80960083 21.17764282 C194.14945068 17.84147133 195.49238428 14.50655643 196.8359375 11.171875 C197.24246048 10.15717636 197.64898346 9.14247772 198.06782532 8.09703064 C198.44037949 7.17394608 198.81293365 6.25086151 199.19677734 5.29980469 C199.5223764 4.48985046 199.84797546 3.67989624 200.18344116 2.84539795 C201 1 201 1 202 0 C203.77991924 -0.09370624 205.56356739 -0.11744271 207.34594727 -0.11352539 C209.05760826 -0.11341209 209.05760826 -0.11341209 210.80384827 -0.11329651 C212.0454924 -0.10813522 213.28713654 -0.10297394 214.56640625 -0.09765625 C216.46204567 -0.09553383 216.46204567 -0.09553383 218.39598083 -0.09336853 C221.76124889 -0.08870582 225.1264499 -0.0797148 228.49169922 -0.06866455 C231.9234967 -0.05844846 235.35530109 -0.05387049 238.78710938 -0.04882812 C245.52475824 -0.0377738 252.26237525 -0.0210171 259 0 C257.07082924 6.08514714 254.84842447 11.95138974 252.296875 17.80078125 C251.94264969 18.62171265 251.58842438 19.44264404 251.22346497 20.28845215 C250.46395708 22.04822233 249.70291449 23.80733081 248.94046021 25.56582642 C246.89287965 30.29007961 244.85852224 35.02001762 242.82421875 39.75 C242.41239853 40.7071138 242.00057831 41.6642276 241.57627869 42.65034485 C237.84078722 51.34463768 234.18639554 60.07121491 230.5625 68.8125 C224.94475754 82.35419998 219.27082624 95.87122559 213.5625 109.375 C213.15912415 110.32941986 212.75574829 111.28383972 212.34014893 112.2671814 C210.72387378 116.09141754 209.10749667 119.91561054 207.49087524 123.73970032 C203.63328207 132.86541044 199.78289109 141.99414195 195.9375 151.125 C195.61746002 151.88478149 195.29742004 152.64456299 194.96768188 153.42736816 C191.10789048 162.59220292 187.26037528 171.7620931 183.42578125 180.9375 C182.84736481 182.32144707 182.84736481 182.32144707 182.25726318 183.73335266 C181.87120911 184.65706161 181.48515503 185.58077057 181.08740234 186.5324707 C180.30827812 188.39665127 179.52914404 190.26082771 178.75 192.125 C178.36644348 193.04276215 177.98288696 193.96052429 177.58770752 194.90609741 C172.59674964 206.84442952 167.55484428 218.75785497 162.43164062 230.64013672 C155.81070743 246.0326489 149.42210526 261.52377912 143 277 C133.43 277 123.86 277 114 277 C109.50017071 268.00034141 109.50017071 268.00034141 108.10327148 264.59912109 C107.78374008 263.82539154 107.46420868 263.05166199 107.13499451 262.25448608 C106.63311363 261.02636703 106.63311363 261.02636703 106.12109375 259.7734375 C105.75697891 258.88951324 105.39286407 258.00558899 105.01771545 257.09487915 C103.82155254 254.18937859 102.62955998 251.28218601 101.4375 248.375 C100.59016203 246.31497322 99.74249994 244.25507973 98.89453125 242.1953125 C97.13399855 237.9181582 95.37485873 233.64043503 93.61669922 229.36230469 C89.97968553 220.51533311 86.32573376 211.67536932 82.67184448 202.83535767 C80.6997447 198.06372771 78.72881311 193.29161531 76.7578125 188.51953125 C76.36627487 187.57162216 75.97473724 186.62371307 75.57133484 185.64707947 C73.1757338 179.84721137 70.7807544 174.04708696 68.38621521 168.2467804 C66.38266895 163.39360759 64.37887854 158.54053561 62.375 153.6875 C61.98089935 152.73301971 61.58679871 151.77853943 61.18075562 150.7951355 C55.21998463 136.35990857 49.24031565 121.93260519 43.25228882 107.50866699 C37.87386166 94.55046631 32.53550689 81.57629909 27.22769165 68.58901978 C23.04987378 58.36846885 18.82318877 48.16968258 14.55078125 37.98828125 C14.08923141 36.88689316 13.62768158 35.78550507 13.15214539 34.65074158 C10.8736247 29.21360258 8.59010886 23.77867131 6.29760742 18.34741211 C5.46899694 16.37233431 4.6406162 14.3971601 3.8125 12.421875 C3.42584671 11.51129837 3.03919342 10.60072174 2.64082336 9.66255188 C2.29142197 8.82612656 1.94202057 7.98970123 1.58203125 7.12792969 C1.27499268 6.39950867 0.9679541 5.67108765 0.65161133 4.92059326 C0 3 0 3 0 0 Z " fill="#010101" transform="translate(1160,547)"/>
<path d="M0 0 C0 20.13 0 40.26 0 61 C-3.67950508 59.16024746 -5.64698074 57.60313705 -8.5625 54.8125 C-27.97236109 37.05575483 -50.35707396 32.06325833 -75.95556641 32.82958984 C-97.27753048 34.02307268 -117.74024233 46.8567054 -131.69775391 62.44335938 C-135.7146947 67.24501189 -138.93614045 72.55674372 -142 78 C-142.56589844 79.00417969 -143.13179687 80.00835938 -143.71484375 81.04296875 C-155.78318496 104.78044396 -156.04370898 132.56059068 -147.99902344 157.54711914 C-140.10999088 180.74879476 -124.79800499 197.23750017 -103.171875 208.46875 C-82.76478695 217.81724844 -58.19698052 219.28795061 -37 212 C-24.60420046 207.37945776 -14.5165651 199.87724138 -4.65234375 191.2578125 C-2 189 -2 189 0 188 C0 208.46 0 228.92 0 250 C-10.67212449 254.66905446 -20.82613626 259.04783803 -32 262 C-33.77697266 262.48146484 -33.77697266 262.48146484 -35.58984375 262.97265625 C-71.98315469 271.04753948 -112.45481661 263.36727538 -144 244 C-151.90476753 238.65378041 -159.07246457 232.54690161 -166 226 C-166.87269531 225.20335937 -167.74539063 224.40671875 -168.64453125 223.5859375 C-192.37613466 201.11051338 -207.31541583 167.08127826 -208.28125 134.484375 C-209.12672545 92.19292915 -197.33557114 56.82461586 -168.3359375 25.33203125 C-164.17911577 21.18216072 -159.63876818 17.59171381 -155 14 C-154.10925781 13.27039063 -153.21851563 12.54078125 -152.30078125 11.7890625 C-134.71329262 -2.19262302 -113.85189401 -10.3687951 -91.97167969 -14.609375 C-90.32074605 -14.93645447 -88.67847245 -15.30684545 -87.0390625 -15.6875 C-57.26327145 -21.97447054 -26.11704973 -14.24566349 0 0 Z " fill="#010101" transform="translate(872,558)"/>
<path d="M0 0 C61.63905325 0 61.63905325 0 85 21 C85.87140625 21.76699219 86.7428125 22.53398438 87.640625 23.32421875 C104.54682108 39.12065056 114.13570779 61.10061563 115.3515625 84.140625 C116.08896188 110.19043758 107.35525703 134.08978024 89.83984375 153.37890625 C74.80792889 169.04709264 55.19943237 175.64450751 34 178 C22.78 178 11.56 178 0 178 C0 119.26 0 60.52 0 0 Z " fill="#FEFEFE" transform="translate(195,593)"/>
<path d="M0 0 C17.49 0 34.98 0 53 0 C53 89.1 53 178.2 53 270 C35.51 270 18.02 270 0 270 C0 180.9 0 91.8 0 0 Z " fill="#010101" transform="translate(388,547)"/>
<path d="M0 0 C43.84846896 0 43.84846896 0 57.80078125 13.390625 C65.8119508 22.89588478 67.75840727 32.9549701 67.17919922 45.01171875 C66.1306055 56.64625174 60.67352816 65.1051293 52.1015625 72.578125 C36.46707975 83.15610217 18.45751503 82 0 82 C0 54.94 0 27.88 0 0 Z " fill="#FCFCFC" transform="translate(1679,590)"/>
<path d="M0 0 C5.23125196 3.40639663 8.13012202 7.56266399 9.64453125 13.546875 C10.75057236 20.86535265 9.24361525 25.97189013 5 32 C1.13501812 36.40235904 -3.30269988 38.55246833 -9.09765625 39.25390625 C-14.8965813 39.56225389 -19.27056889 38.4051904 -24 35 C-29.28359849 30.0561451 -32.01952931 25.47464913 -32.375 18.1875 C-32.221466 12.10935977 -30.52244592 7.689812 -26.3515625 3.2421875 C-18.32286089 -4.01519779 -9.67544149 -5.20985311 0 0 Z " fill="#F4F4F4" transform="translate(1845,548)"/>
<path d="M0 0 C5.28866807 0.58117232 9.4572859 2.34300494 14.1875 4.625 C14.93926514 4.984729 15.69103027 5.34445801 16.46557617 5.71508789 C22.6203585 8.71360543 28.39630851 12.05634945 34 16 C34.95003906 16.66515625 35.90007812 17.3303125 36.87890625 18.015625 C49.19056343 26.94037258 59.62230262 37.06089996 69 49 C67 50 67 50 64.625 49.3125 C61.801455 47.9007275 60.14221595 46.28995498 58 44 C57.01 43.505 57.01 43.505 56 43 C56 42.34 56 41.68 56 41 C54.68 40.67 53.36 40.34 52 40 C52 39.34 52 38.68 52 38 C49.25124468 36.53855769 46.61337416 35.54207015 43.625 34.6875 C39.06954829 33.21126524 36.52456507 31.2112704 33 28 C29.35868095 25.10349621 26.58481483 23.80139562 22.0625 23.0625 C15.66922089 21.95689534 11.76466625 19.40636307 7.9375 14.1875 C7.298125 13.135625 6.65875 12.08375 6 11 C4.41149765 8.92666938 2.79957144 6.87470971 1.171875 4.83203125 C0 3 0 3 0 0 Z " fill="#BE0F01" transform="translate(1078,547)"/>
<path d="M0 0 C5.23125196 3.40639663 8.13012202 7.56266399 9.64453125 13.546875 C10.75057236 20.86535265 9.24361525 25.97189013 5 32 C1.13501812 36.40235904 -3.30269988 38.55246833 -9.09765625 39.25390625 C-14.8965813 39.56225389 -19.27056889 38.4051904 -24 35 C-29.28359849 30.0561451 -32.01952931 25.47464913 -32.375 18.1875 C-32.221466 12.10935977 -30.52244592 7.689812 -26.3515625 3.2421875 C-18.32286089 -4.01519779 -9.67544149 -5.20985311 0 0 Z M-25.5 8.625 C-28.10646731 14.48955146 -27.88975125 20.33074624 -25.875 26.375 C-23.23337769 30.07327123 -20.34409638 33.01699184 -16.0625 34.8125 C-15.0415625 34.9053125 -15.0415625 34.9053125 -14 35 C-12.906875 35.103125 -11.81375 35.20625 -10.6875 35.3125 C-4.94387433 34.82575206 -1.50612966 32.62503463 2.375 28.4375 C5.60213966 23.59679051 5.72724999 18.64245681 5 13 C3.29240257 8.5051135 0.71420433 5.14137027 -3.3125 2.5 C-12.68547728 -1.31273652 -18.85040537 1.64292563 -25.5 8.625 Z " fill="#111111" transform="translate(1845,548)"/>
<path d="M0 0 C0.33 0 0.66 0 1 0 C1.1641791 8.20895522 1.1641791 8.20895522 0.3125 12.3125 C0.1578125 13.6428125 0.1578125 13.6428125 0 15 C0.4434375 15.54914062 0.886875 16.09828125 1.34375 16.6640625 C3.61524226 19.86772375 4.3164757 23.29709924 5.1875 27.0625 C5.36474609 27.78244141 5.54199219 28.50238281 5.72460938 29.24414062 C6.44245717 32.22916795 7 34.9195409 7 38 C7.66 38.33 8.32 38.66 9 39 C9 40.98 9 42.96 9 45 C9.66 45 10.32 45 11 45 C11.26554688 45.54269531 11.53109375 46.08539062 11.8046875 46.64453125 C12.15789063 47.35996094 12.51109375 48.07539062 12.875 48.8125 C13.22304688 49.52019531 13.57109375 50.22789062 13.9296875 50.95703125 C15.0656486 53.21246418 15.0656486 53.21246418 17 56 C17.76640182 57.67091847 18.49311961 59.36039067 19.1875 61.0625 C19.55230469 61.94035156 19.91710937 62.81820312 20.29296875 63.72265625 C21 66 21 66 20 68 C9.26437776 56.08060192 0.97793929 43.41311808 -6.1875 29.0625 C-6.58662598 28.29405762 -6.98575195 27.52561523 -7.39697266 26.73388672 C-10.07020249 21.1549199 -10.29026379 17.03522003 -9 11 C-8.01 12.485 -8.01 12.485 -7 14 C-6.67 12.35 -6.34 10.7 -6 9 C-5.34 9 -4.68 9 -4 9 C-3.67 10.98 -3.34 12.96 -3 15 C-2.01 10.05 -1.02 5.1 0 0 Z " fill="#BF1800" transform="translate(907,712)"/>
<path d="M0 0 C12.4 0 12.4 0 16 3 C17 4 17 4 17.3125 7.3125 C17 11 17 11 15 13.4375 C14.01 14.2109375 14.01 14.2109375 13 15 C13.433125 15.48210938 13.86625 15.96421875 14.3125 16.4609375 C14.869375 17.09257813 15.42625 17.72421875 16 18.375 C16.556875 19.00148438 17.11375 19.62796875 17.6875 20.2734375 C19 22 19 22 19 24 C15.8125 24.4375 15.8125 24.4375 12 24 C9.88841619 21.91454966 8.43260857 19.58793807 7 17 C6.67 19.31 6.34 21.62 6 24 C4.02 24 2.04 24 0 24 C0 16.08 0 8.16 0 0 Z " fill="#0B0B0B" transform="translate(1825,554)"/>
<path d="M0 0 C0.33 0 0.66 0 1 0 C1.1641791 8.20895522 1.1641791 8.20895522 0.3125 12.3125 C0.209375 13.199375 0.10625 14.08625 0 15 C0.4434375 15.54914062 0.886875 16.09828125 1.34375 16.6640625 C3.61524226 19.86772375 4.3164757 23.29709924 5.1875 27.0625 C5.36474609 27.78244141 5.54199219 28.50238281 5.72460938 29.24414062 C6.44245717 32.22916795 7 34.9195409 7 38 C7.66 38.33 8.32 38.66 9 39 C9 40.98 9 42.96 9 45 C9.66 45 10.32 45 11 45 C11.39832031 45.81404297 11.39832031 45.81404297 11.8046875 46.64453125 C12.15789063 47.35996094 12.51109375 48.07539062 12.875 48.8125 C13.39707031 49.87404297 13.39707031 49.87404297 13.9296875 50.95703125 C15.0656486 53.21246418 15.0656486 53.21246418 17 56 C17.76640182 57.67091847 18.49311961 59.36039067 19.1875 61.0625 C19.55230469 61.94035156 19.91710937 62.81820312 20.29296875 63.72265625 C21 66 21 66 20 68 C11.59653075 59.90280754 11.59653075 59.90280754 11 53.9375 C11 52.638125 11 51.33875 11 50 C10.34 50 9.68 50 9 50 C9 49.34 9 48.68 9 48 C8.01 48 7.02 48 6 48 C5.34 42.72 4.68 37.44 4 32 C2.68 32 1.36 32 0 32 C-2.70776842 21.0722203 -2.70776842 10.9277797 0 0 Z " fill="#D61B00" transform="translate(907,712)"/>
<path d="M0 0 C2.97 0 5.94 0 9 0 C9 0.66 9 1.32 9 2 C9.70125 2.226875 10.4025 2.45375 11.125 2.6875 C14.74128535 4.33841288 17.08769976 6.2908835 20 9 C20 9.66 20 10.32 20 11 C20.88945313 11.05027344 21.77890625 11.10054687 22.6953125 11.15234375 C27.00598381 12.25803604 28.21550795 14.05680593 30.875 17.5625 C32.04675781 19.08037109 32.04675781 19.08037109 33.2421875 20.62890625 C33.82226562 21.41136719 34.40234375 22.19382812 35 23 C33 24 33 24 30.625 23.3125 C27.801455 21.9007275 26.14221595 20.28995498 24 18 C23.34 17.67 22.68 17.34 22 17 C22 16.34 22 15.68 22 15 C20.68 14.67 19.36 14.34 18 14 C18 13.34 18 12.68 18 12 C15.25124468 10.53855769 12.61337416 9.54207015 9.625 8.6875 C5.13203466 7.24678054 2.40506908 5.23045015 -1 2 C-0.67 1.34 -0.34 0.68 0 0 Z " fill="#C41100" transform="translate(1112,573)"/>
<path d="M0 0 C16.11326443 2.13656545 31.7537816 19.2798144 43 30 C42.01 30.33 41.02 30.66 40 31 C39.34 30.278125 38.68 29.55625 38 28.8125 C35.19484659 25.96692651 32.03423608 24.07672916 28.57421875 22.11328125 C27.79498047 21.56220703 27.79498047 21.56220703 27 21 C27 20.34 27 19.68 27 19 C26.38125 18.9175 25.7625 18.835 25.125 18.75 C24.42375 18.5025 23.7225 18.255 23 18 C22.65582031 17.05253906 22.65582031 17.05253906 22.3046875 16.0859375 C20.27322063 12.8380234 17.62740961 12.75955275 14 11.875 C7.1852861 10.1852861 7.1852861 10.1852861 5 8 C5 7.01 5 6.02 5 5 C4.360625 4.731875 3.72125 4.46375 3.0625 4.1875 C1 3 1 3 0 0 Z " fill="#A51104" transform="translate(1094,554)"/>
<path d="M0 0 C0.33 0 0.66 0 1 0 C1.33 8.91 1.66 17.82 2 27 C-5.48662524 20.76114564 -5.48662524 20.76114564 -6.37109375 14.28125 C-6.55192536 6.70759662 -6.55192536 6.70759662 -3.5625 2.875 C-2.716875 2.25625 -1.87125 1.6375 -1 1 C-0.67 0.67 -0.34 0.34 0 0 Z " fill="#F9F9F9" transform="translate(1824,554)"/>
<path d="M0 0 C4.875 4.75 4.875 4.75 6 7 C8.97 7 11.94 7 15 7 C11.20533926 10.99977754 9.2551608 12.87471329 3.625 13.1875 C0.17638178 13.0091232 -2.00322599 12.67466783 -5 11 C-5.33 10.01 -5.66 9.02 -6 8 C-4.02 8 -2.04 8 0 8 C0 5.36 0 2.72 0 0 Z " fill="#EDEDED" transform="translate(1831,570)"/>
<path d="M0 0 C4.84659077 0.59104765 8.60748167 1.97944157 13 4 C12.9175 4.71542969 12.835 5.43085937 12.75 6.16796875 C13.08271713 9.93703004 14.56656131 11.46081403 17 14.3125 C18.11375 15.63701172 18.11375 15.63701172 19.25 16.98828125 C19.8275 17.65214844 20.405 18.31601562 21 19 C20.34 19.33 19.68 19.66 19 20 C17.68113228 18.90344712 16.37009943 17.79746577 15.0625 16.6875 C14.33160156 16.07261719 13.60070313 15.45773437 12.84765625 14.82421875 C11 13 11 13 10 10 C9.1028125 9.8453125 9.1028125 9.8453125 8.1875 9.6875 C4.78169461 8.61710402 3.83290061 5.93264098 2 3 C1.34 2.67 0.68 2.34 0 2 C0 1.34 0 0.68 0 0 Z " fill="#AB1104" transform="translate(1080,548)"/>
<path d="M0 0 C11.14727369 1.74176151 15.41724611 6.02490269 22 15 C20 16 20 16 17.625 15.3125 C14.801455 13.9007275 13.14221595 12.28995498 11 10 C10.34 9.67 9.68 9.34 9 9 C9 8.34 9 7.68 9 7 C7.68 6.67 6.36 6.34 5 6 C5 5.34 5 4.68 5 4 C4.360625 3.71125 3.72125 3.4225 3.0625 3.125 C1 2 1 2 0 0 Z " fill="#D81500" transform="translate(1125,581)"/>
<path d="M0 0 C5.17234982 1.54472875 8.606129 4.80739649 12.5625 8.3125 C13.22185547 8.88162109 13.88121094 9.45074219 14.56054688 10.03710938 C18.09038815 13.12705083 21.2014344 16.2044899 24 20 C21.75 19.8125 21.75 19.8125 19 19 C17.65576661 17.34211215 16.32381517 15.67423683 15 14 C12.73592076 12.47101143 10.43167029 11.26259803 8 10 C8 9.34 8 8.68 8 8 C7.38125 7.9175 6.7625 7.835 6.125 7.75 C4 7 4 7 2.875 5 C2.58625 4.34 2.2975 3.68 2 3 C1.34 2.67 0.68 2.34 0 2 C0 1.34 0 0.68 0 0 Z " fill="#B01507" transform="translate(1113,565)"/>
<path d="M0 0 C0.66 0 1.32 0 2 0 C2.054348 2.0622048 2.09294961 4.12482816 2.125 6.1875 C2.14820313 7.33605469 2.17140625 8.48460937 2.1953125 9.66796875 C2.00484152 12.91740372 1.39360127 15.08660521 0 18 C-2.38432398 15.61567602 -3.09773429 14.26203756 -4 11 C-3.87265795 7.96416547 -3.4833588 4.99813095 -3 2 C-2.01 3.485 -2.01 3.485 -1 5 C-0.67 3.35 -0.34 1.7 0 0 Z " fill="#B01706" transform="translate(901,721)"/>
<path d="M0 0 C0.33 0 0.66 0 1 0 C1.10251672 5.12583611 1.03590199 9.94997778 0 15 C0.33 15 0.66 15 1 15 C1.66 20.61 2.32 26.22 3 32 C2.01 32 1.02 32 0 32 C-2.70776842 21.0722203 -2.70776842 10.9277797 0 0 Z " fill="#CF1500" transform="translate(907,712)"/>
<path d="M0 0 C0.33 0 0.66 0 1 0 C1.52992381 2.76937583 2.0492458 5.54003079 2.5625 8.3125 C2.71396484 9.09818359 2.86542969 9.88386719 3.02148438 10.69335938 C3.16005859 11.45068359 3.29863281 12.20800781 3.44140625 12.98828125 C3.57232666 13.68477783 3.70324707 14.38127441 3.83813477 15.09887695 C4 17 4 17 3 20 C1 18 1 18 0 15.9375 C-0.84589942 13.83134399 -0.84589942 13.83134399 -3 13 C-2.69240822 11.02006459 -2.3787932 9.04106401 -2.0625 7.0625 C-1.88847656 5.96035156 -1.71445312 4.85820313 -1.53515625 3.72265625 C-1 1 -1 1 0 0 Z " fill="#B41400" transform="translate(904,727)"/>
<path d="M0 0 C0.33 0 0.66 0 1 0 C1.103125 1.0725 1.20625 2.145 1.3125 3.25 C1.97400493 6.85820872 2.57483421 8.36395023 5 11 C5.66 10.67 6.32 10.34 7 10 C7.33 12.97 7.66 15.94 8 19 C7.34 19.33 6.68 19.66 6 20 C3.03 14.39 0.06 8.78 -3 3 C-2.01 2.01 -1.02 1.02 0 0 Z " fill="#A71A05" transform="translate(904,738)"/>
<path d="M0 0 C4 1.33333333 8 2.66666667 12 4 C12.6875 6.0625 12.6875 6.0625 13 8 C6.48277089 7.66290194 3.67460782 6.55774263 -1 2 C-0.67 1.34 -0.34 0.68 0 0 Z " fill="#DC1200" transform="translate(1112,573)"/>
<path d="M0 0 C1.79378179 2.69067269 2.97313958 5.08578257 4.1875 8.0625 C4.55230469 8.94035156 4.91710937 9.81820312 5.29296875 10.72265625 C6 13 6 13 5 15 C3.65772954 13.57084149 2.32642904 12.13137328 1 10.6875 C0.2575 9.88699219 -0.485 9.08648438 -1.25 8.26171875 C-3 6 -3 6 -3 3 C-2.34 3 -1.68 3 -1 3 C-0.67 2.01 -0.34 1.02 0 0 Z " fill="#D82E0B" transform="translate(922,765)"/>
<path d="M0 0 C3.9252025 3.70090521 6.94580156 7.54959656 10 12 C6.625 11.375 6.625 11.375 3 10 C1.6875 7 1.6875 7 1 4 C0.34 3.34 -0.32 2.68 -1 2 C-0.67 1.34 -0.34 0.68 0 0 Z " fill="#D8240C" transform="translate(1137,585)"/>
<path d="M0 0 C2.02350324 3.03525486 2.32124018 4.19426202 2.625 7.6875 C2.69976563 8.49574219 2.77453125 9.30398438 2.8515625 10.13671875 C2.90054688 10.75160156 2.94953125 11.36648438 3 12 C2.01 11.67 1.02 11.34 0 11 C-1.28571429 3.57142857 -1.28571429 3.57142857 0 0 Z " fill="#A11708" transform="translate(898,723)"/>
<path d="M0 0 C0.66 0 1.32 0 2 0 C2 0.66 2 1.32 2 2 C2.99 2 3.98 2 5 2 C5 2.66 5 3.32 5 4 C5.66 4 6.32 4 7 4 C7.33 6.31 7.66 8.62 8 11 C4.31993178 7.61831569 2.0214155 4.57478244 0 0 Z " fill="#BC2408" transform="translate(911,758)"/>
<path d="M0 0 C2.475 0.495 2.475 0.495 5 1 C4.67 2.32 4.34 3.64 4 5 C2.68 5.33 1.36 5.66 0 6 C0 4.02 0 2.04 0 0 Z " fill="#F1F1F1" transform="translate(1831,559)"/>
<path d="M0 0 C0.33 2.97 0.66 5.94 1 9 C0.01 9.495 0.01 9.495 -1 10 C-2.32 7.36 -3.64 4.72 -5 2 C-1 0 -1 0 0 0 Z " fill="#B3230C" transform="translate(911,748)"/>
<path d="M0 0 C4.2742558 1.5830577 6.26531794 4.50568404 9 8 C5.41209425 7.70100785 4.21833224 7.23013399 1.6875 4.5625 C0 2 0 2 0 0 Z " fill="#C22F1E" transform="translate(1128,577)"/>
<path d="M0 0 C4.43458973 1.3937282 6.87378374 3.60582235 10 7 C7.8125 7.3125 7.8125 7.3125 5 7 C2.1875 4.625 2.1875 4.625 0 2 C0 1.34 0 0.68 0 0 Z " fill="#AB1D0F" transform="translate(1113,565)"/>
<path d="M0 0 C4.75 0.75 4.75 0.75 7 3 C6.67 3.66 6.34 4.32 6 5 C4.125 4.75 4.125 4.75 2 4 C0.75 1.9375 0.75 1.9375 0 0 Z " fill="#A0180C" transform="translate(1094,554)"/>
</svg>
