<svg viewBox="0 16 100 40.45" width="100" height="41" fill="none" xmlns="http://www.w3.org/2000/svg" focusable="false">
	<path d="M88.262 16H11.738C5.255 16 0 21.256 0 27.738v16.973c0 6.483 5.255 11.738 11.738 11.738h76.524c6.483 0 11.738-5.255 11.738-11.738V27.738C100 21.256 94.745 16 88.262 16Z" fill="#FFB3C7" />
	<path d="M80.077 33.724a6.194 6.194 0 1 0 0 10.237v.75h3.515V32.973h-3.515v.75Zm-3.196 8.138a3.024 3.024 0 1 1 3.185-3.02 3.106 3.106 0 0 1-3.185 3.02ZM31.88 27.742h-3.677V44.71h3.678v-16.97ZM64.154 32.657a4.269 4.269 0 0 0-3.62 1.638v-1.322h-3.5v11.738h3.542v-6.169a2.477 2.477 0 0 1 2.639-2.659c1.544 0 2.432.923 2.432 2.635v6.193h3.51v-7.465c0-2.731-2.171-4.59-5.003-4.59ZM43 33.724a6.194 6.194 0 1 0 0 10.237v.75h3.514V32.973H43v.75Zm-3.197 8.138a3.024 3.024 0 1 1 3.185-3.02 3.106 3.106 0 0 1-3.185 3.02ZM51.951 34.502v-1.53h-3.598v11.74h3.606v-5.48c0-1.85 2.004-2.844 3.395-2.844l.042.002v-3.416a4.382 4.382 0 0 0-3.445 1.528ZM87.323 40.548a2.206 2.206 0 1 0 0 4.41 2.206 2.206 0 0 0 0-4.41ZM25.667 27.738h-3.811a9.75 9.75 0 0 1-3.942 7.868l-1.51 1.131 5.852 7.98h4.81l-5.383-7.343a13.505 13.505 0 0 0 3.984-9.636ZM15.939 27.738H12.12v16.978h3.819V27.738Z" fill="#000" />
</svg>
